<svg width="107" height="56" viewBox="0 0 107 56" fill="none" xmlns="http://www.w3.org/2000/svg">
<path d="M82.8539 52.4566C96.1895 52.4566 107 41.4988 107 27.9817C107 14.4646 96.1895 3.50684 82.8539 3.50684C69.5184 3.50684 58.7078 14.4646 58.7078 27.9817C58.7078 41.4988 69.5184 52.4566 82.8539 52.4566Z" fill="white"/>
<path d="M0 0V56H55.2479V0H0ZM27.6059 52.4932C14.2715 52.4932 3.45975 41.5342 3.45975 28.0183C3.45975 14.5023 14.2715 3.54338 27.6059 3.54338C40.9404 3.54338 51.7521 14.5023 51.7521 28.0183C51.7521 41.5342 40.9764 52.4932 27.6059 52.4932Z" fill="white"/>
</svg>
