<?xml version="1.0" encoding="utf-8"?><svg viewBox="0 0 945 56" xmlns="http://www.w3.org/2000/svg" xmlns:xlink="http://www.w3.org/1999/xlink"><style>:root>svg{display:none}:root>svg:target{display:block}</style><svg viewBox="0 0 945 4" id="Line_22" xmlns="http://www.w3.org/2000/svg"><path d="M0 2h945"/></svg><svg viewBox="0 0 107 56" id="Logo" xmlns="http://www.w3.org/2000/svg"><path d="M82.854 52.457C96.189 52.457 107 41.499 107 27.982c0-13.517-10.81-24.475-24.146-24.475S58.708 14.465 58.708 27.982c0 13.517 10.81 24.475 24.146 24.475zM0 0v56h55.248V0H0zm27.606 52.493C14.27 52.493 3.46 41.534 3.46 28.018c0-13.516 10.811-24.475 24.146-24.475 13.334 0 24.146 10.96 24.146 24.475 0 13.516-10.776 24.475-24.146 24.475z"/></svg><svg viewBox="0 0 29 18" id="arrow4" xmlns="http://www.w3.org/2000/svg"><path d="M28.9 2.8L26.1 0l-12 12L2.8.7 0 3.5l14.1 14.2 2.8-2.8 12-12.1z"/></svg></svg>